<mxfile host="app.diagrams.net" modified="2022-03-26T17:43:22.795Z" agent="5.0 (Macintosh; Intel Mac OS X 10_15_7) AppleWebKit/605.1.15 (KHTML, like Gecko) Version/15.0 Safari/605.1.15" etag="maCbU5MMIMpTmn01ayFn" version="17.2.4" type="github">
  <diagram id="prtHgNgQTEPvFCAcTncT" name="Page-1">
    <mxGraphModel dx="877" dy="511" grid="1" gridSize="10" guides="1" tooltips="1" connect="1" arrows="1" fold="1" page="1" pageScale="1" pageWidth="827" pageHeight="1169" math="0" shadow="0">
      <root>
        <mxCell id="0" />
        <mxCell id="1" parent="0" />
        <mxCell id="dNxyNK7c78bLwvsdeMH5-19" value="User Story Map" style="swimlane;html=1;childLayout=stackLayout;resizeParent=1;resizeParentMax=0;horizontal=0;startSize=20;horizontalStack=0;fillColor=#FFFFFF;" parent="1" vertex="1">
          <mxGeometry x="100" y="110" width="710" height="480" as="geometry">
            <mxRectangle x="120" y="120" width="30" height="50" as="alternateBounds" />
          </mxGeometry>
        </mxCell>
        <mxCell id="dNxyNK7c78bLwvsdeMH5-20" value="User Activity" style="swimlane;html=1;startSize=20;horizontal=0;fillColor=#CCCCCC;" parent="dNxyNK7c78bLwvsdeMH5-19" vertex="1">
          <mxGeometry x="20" width="690" height="120" as="geometry" />
        </mxCell>
        <mxCell id="pPb3YQGdaz1X03qqN8d--9" value="Record &amp;nbsp;daily intake" style="whiteSpace=wrap;html=1;aspect=fixed;fillColor=#FFE599;strokeColor=#FFE6CC;" parent="dNxyNK7c78bLwvsdeMH5-20" vertex="1">
          <mxGeometry x="30" y="20" width="80" height="80" as="geometry" />
        </mxCell>
        <mxCell id="pPb3YQGdaz1X03qqN8d--10" value="View 3D models on gallery" style="whiteSpace=wrap;html=1;aspect=fixed;strokeColor=#FFE599;fillColor=#FFE599;" parent="dNxyNK7c78bLwvsdeMH5-20" vertex="1">
          <mxGeometry x="140" y="20" width="80" height="80" as="geometry" />
        </mxCell>
        <mxCell id="pPb3YQGdaz1X03qqN8d--11" value="Interact with 3D models" style="whiteSpace=wrap;html=1;aspect=fixed;fillColor=#FFE599;strokeColor=#FFE599;" parent="dNxyNK7c78bLwvsdeMH5-20" vertex="1">
          <mxGeometry x="480" y="20" width="80" height="80" as="geometry" />
        </mxCell>
        <mxCell id="pPb3YQGdaz1X03qqN8d--12" value="Search by keywords &amp;nbsp;&amp;nbsp;" style="whiteSpace=wrap;html=1;aspect=fixed;fillColor=#FFE599;strokeColor=#FFE599;" parent="dNxyNK7c78bLwvsdeMH5-20" vertex="1">
          <mxGeometry x="260" y="20" width="80" height="80" as="geometry" />
        </mxCell>
        <mxCell id="pPb3YQGdaz1X03qqN8d--32" value="" style="endArrow=none;html=1;rounded=0;" parent="dNxyNK7c78bLwvsdeMH5-20" edge="1">
          <mxGeometry width="50" height="50" relative="1" as="geometry">
            <mxPoint x="240" y="480" as="sourcePoint" />
            <mxPoint x="240" as="targetPoint" />
          </mxGeometry>
        </mxCell>
        <mxCell id="dNxyNK7c78bLwvsdeMH5-21" value="User Task" style="swimlane;html=1;startSize=20;horizontal=0;fillColor=#CCCCCC;strokeColor=#000000;" parent="dNxyNK7c78bLwvsdeMH5-19" vertex="1">
          <mxGeometry x="20" y="120" width="690" height="120" as="geometry" />
        </mxCell>
        <mxCell id="dNxyNK7c78bLwvsdeMH5-29" value="" style="edgeStyle=orthogonalEdgeStyle;rounded=0;orthogonalLoop=1;jettySize=auto;html=1;endArrow=classic;endFill=1;" parent="dNxyNK7c78bLwvsdeMH5-21" edge="1">
          <mxGeometry relative="1" as="geometry">
            <mxPoint x="200" y="60" as="sourcePoint" />
          </mxGeometry>
        </mxCell>
        <mxCell id="pPb3YQGdaz1X03qqN8d--13" value="Add record" style="whiteSpace=wrap;html=1;aspect=fixed;strokeColor=#F8CECC;fillColor=#F8CECC;" parent="dNxyNK7c78bLwvsdeMH5-21" vertex="1">
          <mxGeometry x="30" y="20" width="80" height="80" as="geometry" />
        </mxCell>
        <mxCell id="pPb3YQGdaz1X03qqN8d--14" value="Join gallery" style="whiteSpace=wrap;html=1;aspect=fixed;strokeColor=#F8CECC;fillColor=#F8CECC;" parent="dNxyNK7c78bLwvsdeMH5-21" vertex="1">
          <mxGeometry x="140" y="20" width="80" height="80" as="geometry" />
        </mxCell>
        <mxCell id="pPb3YQGdaz1X03qqN8d--16" value="View nutrition information" style="whiteSpace=wrap;html=1;aspect=fixed;strokeColor=#F8CECC;fillColor=#F8CECC;" parent="dNxyNK7c78bLwvsdeMH5-21" vertex="1">
          <mxGeometry x="260" y="20" width="80" height="80" as="geometry" />
        </mxCell>
        <mxCell id="pPb3YQGdaz1X03qqN8d--27" value="Interact &amp;nbsp;with 3D models on virtual world" style="whiteSpace=wrap;html=1;aspect=fixed;strokeColor=#F8CECC;fillColor=#F8CECC;" parent="dNxyNK7c78bLwvsdeMH5-21" vertex="1">
          <mxGeometry x="480" y="20" width="80" height="80" as="geometry" />
        </mxCell>
        <mxCell id="pPb3YQGdaz1X03qqN8d--33" value="" style="endArrow=none;html=1;rounded=0;" parent="dNxyNK7c78bLwvsdeMH5-21" edge="1">
          <mxGeometry width="50" height="50" relative="1" as="geometry">
            <mxPoint x="460" y="360" as="sourcePoint" />
            <mxPoint x="460" y="-120" as="targetPoint" />
          </mxGeometry>
        </mxCell>
        <mxCell id="dNxyNK7c78bLwvsdeMH5-22" value="First release" style="swimlane;html=1;startSize=20;horizontal=0;fillColor=#CCCCCC;" parent="dNxyNK7c78bLwvsdeMH5-19" vertex="1">
          <mxGeometry x="20" y="240" width="690" height="120" as="geometry" />
        </mxCell>
        <mxCell id="pPb3YQGdaz1X03qqN8d--18" value="Write nutrition name and quantity" style="whiteSpace=wrap;html=1;aspect=fixed;strokeColor=#CC99FF;fillColor=#CC99FF;" parent="dNxyNK7c78bLwvsdeMH5-22" vertex="1">
          <mxGeometry x="30" y="20" width="80" height="80" as="geometry" />
        </mxCell>
        <mxCell id="pPb3YQGdaz1X03qqN8d--19" value="Choose different models" style="whiteSpace=wrap;html=1;aspect=fixed;strokeColor=#CC99FF;fillColor=#CC99FF;" parent="dNxyNK7c78bLwvsdeMH5-22" vertex="1">
          <mxGeometry x="140" y="20" width="80" height="80" as="geometry" />
        </mxCell>
        <mxCell id="pPb3YQGdaz1X03qqN8d--28" value="&lt;span&gt;Type element to search&lt;/span&gt;" style="whiteSpace=wrap;html=1;aspect=fixed;strokeColor=#CC99FF;fillColor=#CC99FF;" parent="dNxyNK7c78bLwvsdeMH5-22" vertex="1">
          <mxGeometry x="260" y="20" width="80" height="80" as="geometry" />
        </mxCell>
        <mxCell id="pPb3YQGdaz1X03qqN8d--29" value="&lt;span&gt;Type nutrition name to search&lt;/span&gt;" style="whiteSpace=wrap;html=1;aspect=fixed;strokeColor=#CC99FF;fillColor=#CC99FF;" parent="dNxyNK7c78bLwvsdeMH5-22" vertex="1">
          <mxGeometry x="360" y="20" width="80" height="80" as="geometry" />
        </mxCell>
        <mxCell id="00OdWuY91DB7p8gJ45JM-1" value="Download in-app image" style="whiteSpace=wrap;html=1;aspect=fixed;strokeColor=#CC99FF;fillColor=#CC99FF;" vertex="1" parent="dNxyNK7c78bLwvsdeMH5-22">
          <mxGeometry x="480" y="20" width="80" height="80" as="geometry" />
        </mxCell>
        <mxCell id="pPb3YQGdaz1X03qqN8d--25" value="Recognize in-app image" style="whiteSpace=wrap;html=1;aspect=fixed;strokeColor=#CC99FF;fillColor=#CC99FF;" parent="dNxyNK7c78bLwvsdeMH5-22" vertex="1">
          <mxGeometry x="590" y="20" width="80" height="80" as="geometry" />
        </mxCell>
        <mxCell id="pPb3YQGdaz1X03qqN8d--1" value="Second release" style="swimlane;html=1;startSize=20;horizontal=0;fillColor=#CCCCCC;" parent="dNxyNK7c78bLwvsdeMH5-19" vertex="1">
          <mxGeometry x="20" y="360" width="690" height="120" as="geometry" />
        </mxCell>
        <mxCell id="pPb3YQGdaz1X03qqN8d--20" value="Control the view of camera" style="whiteSpace=wrap;html=1;aspect=fixed;strokeColor=#CC99FF;fillColor=#CC99FF;" parent="pPb3YQGdaz1X03qqN8d--1" vertex="1">
          <mxGeometry x="140" y="20" width="80" height="80" as="geometry" />
        </mxCell>
        <mxCell id="pPb3YQGdaz1X03qqN8d--24" value="Display &amp;nbsp;search result detail information" style="whiteSpace=wrap;html=1;aspect=fixed;strokeColor=#CC99FF;fillColor=#CC99FF;" parent="pPb3YQGdaz1X03qqN8d--1" vertex="1">
          <mxGeometry x="360" y="20" width="80" height="80" as="geometry" />
        </mxCell>
        <mxCell id="pPb3YQGdaz1X03qqN8d--26" value="Tap button to change scene&amp;nbsp;" style="whiteSpace=wrap;html=1;aspect=fixed;strokeColor=#CC99FF;fillColor=#CC99FF;" parent="pPb3YQGdaz1X03qqN8d--1" vertex="1">
          <mxGeometry x="480" y="20" width="80" height="80" as="geometry" />
        </mxCell>
        <mxCell id="pPb3YQGdaz1X03qqN8d--21" value="Filter search options" style="whiteSpace=wrap;html=1;aspect=fixed;strokeColor=#CC99FF;fillColor=#CC99FF;" parent="pPb3YQGdaz1X03qqN8d--1" vertex="1">
          <mxGeometry x="260" y="20" width="80" height="80" as="geometry" />
        </mxCell>
        <mxCell id="00OdWuY91DB7p8gJ45JM-2" value="Tap model to trigger animation" style="whiteSpace=wrap;html=1;aspect=fixed;strokeColor=#CC99FF;fillColor=#CC99FF;" vertex="1" parent="pPb3YQGdaz1X03qqN8d--1">
          <mxGeometry x="590" y="20" width="80" height="80" as="geometry" />
        </mxCell>
        <mxCell id="pPb3YQGdaz1X03qqN8d--30" value="" style="endArrow=none;html=1;rounded=0;" parent="1" edge="1">
          <mxGeometry width="50" height="50" relative="1" as="geometry">
            <mxPoint x="240" y="590" as="sourcePoint" />
            <mxPoint x="240" y="110" as="targetPoint" />
          </mxGeometry>
        </mxCell>
      </root>
    </mxGraphModel>
  </diagram>
</mxfile>
